<?xml version="1.0" encoding="utf-8"?>
<!-- Generator: Adobe Illustrator 21.1.0, SVG Export Plug-In . SVG Version: 6.00 Build 0)  -->
<svg version="1.1" id="Layer_1" xmlns="http://www.w3.org/2000/svg" xmlns:xlink="http://www.w3.org/1999/xlink" x="0px" y="0px"
	 viewBox="0 0 270 64" style="enable-background:new 0 0 270 64;" xml:space="preserve">
<style type="text/css">
	.st0{fill:#FFFFFF;}
</style>
<path class="st0" d="M259,22.5h8.9l1.5,1.6H259V22.5z M235.5,22.7c5.9,0,9.9-1.1,14.2-5.5c4.7-4.9,5.3-11.9,5.3-16.6h1.4v23.5h-21.8
	L235.5,22.7z M234.5,26.7h1.7c5.9,0,13,1.3,15.6,5c1.9,2.6,2.2,4.8,2.2,10.1v6.5c0,2.3-0.2,4.7,1.2,5.8c0.9,0.7,1.1,0.8,2.4,0.8v1.9
	c-5,0-11.7,0.2-14.6-2.7c-3.1-3.2-2.8-7.8-2.8-12.9v-7.2c0-4.6-3.1-5.4-5.7-5.6V26.7z M214.9,26.7c15.7-0.4,16.6,8.9,16.6,11.5
	c0,5.8-6.8,10.7-13.7,9.2c0,0,1.2-2,1.2-6.8v-3.3c0-3.8-0.1-8.9-4.1-8.9V26.7z M212.5,26.7c-10.4,0-20.6,8.1-20.6,18.9
	c0,14,15.1,20.5,25.4,13.6l-0.7-1.5c-10.9,5.5-10.4-8.7-10.4-11.7v-7.1c0-9.4,4-10.1,6.3-10.5V26.7z M166.5,33.5h6.2
	c11.2,0,11.6,6.5,11.6,15v7.9c0,5.7,5.5,5.5,5.5,5.5v1.4c-7.2,0-19.7,0.2-19.7-13.5V38.5c0-4-3.6-3.5-3.6-3.5V33.5z M143.1,54.8h3.9
	V36.3h0.9c0,0,1.7,2.9,5.1,2.9c4.3,0,6.4-4.5,11-5.6v1.6c0,0-3.4,0.5-3.4,6v13.8h4v1.9h-21.6V54.8z M138.4,56.7v-1.9h-3.9V36.3h-0.9
	c0,0-1.7,2.9-5.1,2.9c-4.3,0-6.4-4.5-11-5.6v1.6c0,0,3.4,0.5,3.4,6v13.8h-4v1.9H138.4z M136,17.6c0-6.8-6.2-13.7-16.3-13.7v1.4
	c0,0,6.7,0.7,5.6,7.3c-3-0.6-6.5,1.9-6.5,7.2c0,3.3,3.5,7.7,8,7.7C133.6,27.5,136,21.1,136,17.6 M94.7,29.8c1.1-0.3,2.7-0.9,4-0.1
	c0.6,0.4,0.8,3.2,0.8,5.8v11.2c0,2.2-0.4,4.5-1.1,5.6c-1.3,1.9-3.1,2.1-5.2,2.6v1.9c10.9-0.6,20.5-7.8,20.5-17.2
	c0-5-3.5-10.5-9-12.3c-3.1-1-5.3-0.5-8.2,0.3L94.7,29.8z M73.2,54.8h4.1V4.6h-4.2V2.8h17.7v53.9H73.2V54.8z M40.7,22.4l3.1,6.8
	c4.7,10.2,6.6,17.7,5.3,21.7c-0.9,2.5-2.1,4-5.6,4h-0.7v1.9h26.5v-1.9c-1.7-0.1-3-0.2-4.5-0.8C60.1,52.1,53.6,43.6,49,34.8
	l-6.4-12.4H40.7z M40.2,29.2h0.9v-1.7h-1.4c-10.5,0-18.7,3.7-18.7,14.5c0,13.3,13.4,14.7,17.7,14.7h2.4v-1.9h-1.3
	c-1.1,0-1.8-0.1-2.7-0.8c-1-0.8-2.3-1.7-2.3-6.1V37.4c0-2.5,0.1-5.4,1.6-6.7C37.7,29.7,38.6,29.2,40.2,29.2 M14.5,42.4V13.3
	c0-3.2-0.2-7.3,4.6-8.7V2.9c0,0-3.6,0.6-7.5,3.2C6.4,9.7,0.5,17.5,0.5,30.5c0,10.7,5.7,19.1,10.7,22.9c4.1,3,7.8,3.3,7.8,3.3v-1.8
	C15.8,53.9,14.5,53.1,14.5,42.4"/>
</svg>
